<svg width="40" height="40" viewBox="0 0 40 40" fill="none" xmlns="http://www.w3.org/2000/svg">
<g id="icn favorite" clip-path="url(#clip0_1_684)">
<path id="Vector" d="M0.637909 3.61472C0.637909 3.28819 0.767626 2.97504 0.998524 2.74415C1.22942 2.51326 1.54259 2.38354 1.86913 2.38354H5.56277C5.83741 2.38362 6.10414 2.47552 6.32054 2.64462C6.53694 2.81372 6.69059 3.05031 6.75705 3.31678L7.75434 7.30826H36.3432C36.524 7.30842 36.7025 7.3484 36.8661 7.42534C37.0297 7.50229 37.1743 7.61431 37.2897 7.75346C37.4051 7.89261 37.4885 8.05546 37.5339 8.23045C37.5792 8.40545 37.5855 8.58828 37.5522 8.76597L33.8586 28.4648C33.8058 28.747 33.656 29.0018 33.4353 29.1852C33.2145 29.3687 32.9366 29.4692 32.6495 29.4695H10.4876C10.2006 29.4692 9.92267 29.3687 9.7019 29.1852C9.48113 29.0018 9.3314 28.747 9.27858 28.4648L5.5874 8.80291L4.60243 4.8459H1.86913C1.54259 4.8459 1.22942 4.71619 0.998524 4.4853C0.767626 4.25441 0.637909 3.94125 0.637909 3.61472ZM8.27637 9.77061L11.5095 27.0071H31.6276L34.8608 9.77061H8.27637ZM12.9501 29.4695C11.6439 29.4695 10.3913 29.9883 9.46767 30.9119C8.54407 31.8354 8.02521 33.0881 8.02521 34.3942C8.02521 35.7003 8.54407 36.9529 9.46767 37.8765C10.3913 38.8 11.6439 39.3189 12.9501 39.3189C14.2562 39.3189 15.5089 38.8 16.4325 37.8765C17.3561 36.9529 17.8749 35.7003 17.8749 34.3942C17.8749 33.0881 17.3561 31.8354 16.4325 30.9119C15.5089 29.9883 14.2562 29.4695 12.9501 29.4695ZM30.1871 29.4695C28.8809 29.4695 27.6283 29.9883 26.7047 30.9119C25.7811 31.8354 25.2622 33.0881 25.2622 34.3942C25.2622 35.7003 25.7811 36.9529 26.7047 37.8765C27.6283 38.8 28.8809 39.3189 30.1871 39.3189C31.4933 39.3189 32.7459 38.8 33.6695 37.8765C34.5931 36.9529 35.112 35.7003 35.112 34.3942C35.112 33.0881 34.5931 31.8354 33.6695 30.9119C32.7459 29.9883 31.4933 29.4695 30.1871 29.4695ZM12.9501 31.9318C13.6031 31.9318 14.2295 32.1912 14.6913 32.653C15.1531 33.1148 15.4125 33.7411 15.4125 34.3942C15.4125 35.0472 15.1531 35.6735 14.6913 36.1353C14.2295 36.5971 13.6031 36.8565 12.9501 36.8565C12.297 36.8565 11.6707 36.5971 11.2089 36.1353C10.7471 35.6735 10.4876 35.0472 10.4876 34.3942C10.4876 33.7411 10.7471 33.1148 11.2089 32.653C11.6707 32.1912 12.297 31.9318 12.9501 31.9318ZM30.1871 31.9318C30.8402 31.9318 31.4665 32.1912 31.9283 32.653C32.3901 33.1148 32.6495 33.7411 32.6495 34.3942C32.6495 35.0472 32.3901 35.6735 31.9283 36.1353C31.4665 36.5971 30.8402 36.8565 30.1871 36.8565C29.534 36.8565 28.9077 36.5971 28.4459 36.1353C27.9841 35.6735 27.7247 35.0472 27.7247 34.3942C27.7247 33.7411 27.9841 33.1148 28.4459 32.653C28.9077 32.1912 29.534 31.9318 30.1871 31.9318Z" fill="#252B42"/>
</g>
<defs>
<clipPath id="clip0_1_684">
<rect width="38.8793" height="38.8793" fill="white" transform="translate(0.637909 0.439697)"/>
</clipPath>
</defs>
</svg>
