<svg width="19" height="20" viewBox="0 0 19 20" fill="none" xmlns="http://www.w3.org/2000/svg">
<g id="icn settings icn-xs" clip-path="url(#clip0_1_136)">
<path id="Vector" d="M0.0484009 2.12883C0.0484009 1.97248 0.110511 1.82253 0.221067 1.71197C0.331624 1.60142 0.48157 1.53931 0.637921 1.53931H2.40648C2.53798 1.53934 2.66569 1.58334 2.76931 1.66431C2.87292 1.74528 2.94649 1.85857 2.97831 1.98616L3.45582 3.89739H17.1445C17.231 3.89747 17.3165 3.91661 17.3948 3.95345C17.4732 3.99029 17.5424 4.04393 17.5977 4.11056C17.6529 4.17719 17.6929 4.25517 17.7146 4.33896C17.7363 4.42275 17.7393 4.51029 17.7234 4.59538L15.9548 14.0277C15.9295 14.1628 15.8578 14.2848 15.7521 14.3726C15.6464 14.4605 15.5134 14.5086 15.3759 14.5087H4.76456C4.62712 14.5086 4.49405 14.4605 4.38834 14.3726C4.28263 14.2848 4.21094 14.1628 4.18565 14.0277L2.41827 4.61306L1.94665 2.71835H0.637921C0.48157 2.71835 0.331624 2.65624 0.221067 2.54568C0.110511 2.43512 0.0484009 2.28518 0.0484009 2.12883ZM3.70578 5.07642L5.25386 13.3297H14.8866L16.4347 5.07642H3.70578ZM5.9436 14.5087C5.3182 14.5087 4.71841 14.7572 4.27618 15.1994C3.83396 15.6416 3.58552 16.2414 3.58552 16.8668C3.58552 17.4922 3.83396 18.092 4.27618 18.5342C4.71841 18.9765 5.3182 19.2249 5.9436 19.2249C6.569 19.2249 7.16879 18.9765 7.61101 18.5342C8.05324 18.092 8.30168 17.4922 8.30168 16.8668C8.30168 16.2414 8.05324 15.6416 7.61101 15.1994C7.16879 14.7572 6.569 14.5087 5.9436 14.5087ZM14.1969 14.5087C13.5715 14.5087 12.9717 14.7572 12.5295 15.1994C12.0872 15.6416 11.8388 16.2414 11.8388 16.8668C11.8388 17.4922 12.0872 18.092 12.5295 18.5342C12.9717 18.9765 13.5715 19.2249 14.1969 19.2249C14.8223 19.2249 15.4221 18.9765 15.8643 18.5342C16.3065 18.092 16.555 17.4922 16.555 16.8668C16.555 16.2414 16.3065 15.6416 15.8643 15.1994C15.4221 14.7572 14.8223 14.5087 14.1969 14.5087ZM5.9436 15.6878C6.2563 15.6878 6.55619 15.812 6.7773 16.0331C6.99842 16.2542 7.12264 16.5541 7.12264 16.8668C7.12264 17.1795 6.99842 17.4794 6.7773 17.7005C6.55619 17.9216 6.2563 18.0459 5.9436 18.0459C5.6309 18.0459 5.331 17.9216 5.10989 17.7005C4.88878 17.4794 4.76456 17.1795 4.76456 16.8668C4.76456 16.5541 4.88878 16.2542 5.10989 16.0331C5.331 15.812 5.6309 15.6878 5.9436 15.6878ZM14.1969 15.6878C14.5096 15.6878 14.8095 15.812 15.0306 16.0331C15.2517 16.2542 15.3759 16.5541 15.3759 16.8668C15.3759 17.1795 15.2517 17.4794 15.0306 17.7005C14.8095 17.9216 14.5096 18.0459 14.1969 18.0459C13.8842 18.0459 13.5843 17.9216 13.3632 17.7005C13.1421 17.4794 13.0178 17.1795 13.0178 16.8668C13.0178 16.5541 13.1421 16.2542 13.3632 16.0331C13.5843 15.812 13.8842 15.6878 14.1969 15.6878Z" fill="#23A6F0"/>
</g>
<defs>
<clipPath id="clip0_1_136">
<rect width="18.8646" height="18.8646" fill="white" transform="translate(0.0484009 0.36026)"/>
</clipPath>
</defs>
</svg>
