<svg width="117" height="91" viewBox="0 0 137 101" fill="none" xmlns="http://www.w3.org/2000/svg">
<g id="fa-brands-3" clip-path="url(#clip0_1_1061)">
<path id="Vector" d="M136.333 0.861328C119.163 12.438 117.336 20.8397 115.848 23.4099C114.425 26.0449 113.362 36.4337 110.897 41.4661C108.411 46.5633 99.3796 50.5805 96.8509 52.2652C94.3646 53.9499 90.8371 60.4942 87.9471 66.1313C64.9759 65.181 52.3746 74.5114 32.8671 86.3473C39.1146 84.2523 42.0684 82.7404 42.0684 82.7404C62.0859 74.965 71.6696 67.9887 101.802 72.114C102.036 72.114 102.206 72.2436 102.397 72.2868C103.226 72.762 103.523 73.7771 103.056 74.6194L91.6021 95.3106C91.0709 96.3257 89.9446 96.8656 88.8184 96.6281C61.8734 91.4877 40.6021 100.365 21.0521 100.645C5.45464 100.883 0.333389 93.4099 0.333389 93.0643C0.333389 92.8268 0.460889 92.6972 0.694639 92.6972C0.694639 92.6972 8.83339 92.6972 22.6034 89.3926C38.2434 59.0903 52.1834 48.4855 67.3559 48.4855C67.3559 48.4855 82.5921 48.4855 86.6084 61.8548C91.4534 53.2803 92.6221 51.2285 92.6221 51.2285C93.7484 49.1983 100.06 34.5546 110.982 20.6885C121.926 6.86565 130.192 3.43152 136.333 0.861328Z" fill="#737373"/>
</g>
<defs>
<clipPath id="clip0_1_1061">
<rect width="136" height="100" fill="white" transform="translate(0.333389 0.666504)"/>
</clipPath>
</defs>
</svg>
