<svg width="128" height="36" viewBox="0 0 138 46" fill="none" xmlns="http://www.w3.org/2000/svg">
<g id="fa-brands-1" clip-path="url(#clip0_1_1055)">
<path id="Vector" d="M31.6737 42.5662L39.8923 42.7365C37.0598 41.7574 34.3131 40.5656 31.6737 39.1609V42.5662ZM44.0552 41.4382V42.5662L39.8923 42.7365C47.7245 45.3969 54.8916 45.7587 60.2133 44.2689C55.9431 44.3114 50.3854 43.7155 44.0552 41.4382ZM131.798 16.9199C135.21 16.9199 138 14.1743 138 10.769C138 7.36369 135.232 5.55461 131.798 5.55461C128.386 5.55461 125.597 7.38497 125.597 10.769C125.597 14.153 128.365 16.9199 131.798 16.9199ZM125.575 42.5662H138V19.0482H125.575V42.5662ZM109.761 42.5662H122.185V0.999993L109.761 6.81032V42.5662ZM103.108 17.154C99.2031 13.2804 92.2935 13.5145 92.2935 13.5145C92.2935 13.5145 85.3625 13.2804 81.4785 17.154C77.5731 21.0275 77.8735 24.369 77.8735 28.349C77.8735 32.3289 77.5731 35.6491 81.4785 39.5227C85.3839 43.3962 92.2935 43.1621 92.2935 43.1621C92.2935 43.1621 99.2245 43.3962 103.108 39.5227C107.014 35.6491 106.713 32.3289 106.713 28.349C106.692 24.3477 106.992 21.0063 103.108 17.154ZM94.5681 32.4566C94.5681 33.2228 94.1818 35.1171 92.272 35.1171C90.3622 35.1171 89.976 33.2228 89.976 32.4566V23.8582C89.976 22.0066 91.5425 21.5383 92.272 21.5383C93.0016 21.5383 94.5681 21.9853 94.5681 23.8582V32.4566ZM71.7793 17.154C67.8739 13.2804 60.9643 13.5145 60.9643 13.5145C60.9643 13.5145 54.0548 13.2804 50.1493 17.154C49.7416 17.5584 49.3554 17.984 49.012 18.431C40.815 12.1311 33.4548 8.53427 27.1031 5.42691V1.02128L22.275 3.2773C10.6016 -1.4263 3.17705 -0.596251 1.39601 3.29858C1.39601 3.29858 -3.94711 10.2795 14.6573 26.8804V42.5662H27.0816V36.4792C25.6868 35.5853 24.292 34.6275 22.9187 33.5847C19.7429 31.2009 17.0391 28.9875 14.6787 26.9017V20.3039C17.4898 23.4325 21.2235 26.9868 26.1375 31.0094L27.1031 31.7756V25.4332C27.1031 23.9646 27.4679 21.5596 29.4206 21.5596C31.3733 21.5596 31.6952 23.0282 31.6952 24.7521V35.1171C35.5577 37.7136 39.6991 39.8207 44.0766 41.4169V21.4319C44.0766 17.452 41.2012 13.472 35.3645 13.472C31.9741 13.4507 28.8198 15.2172 27.1031 18.133V6.5762C36.0941 11.0244 45.1066 16.4729 48.54 18.9843C46.3512 22.0917 46.5443 24.9649 46.5443 28.2851C46.5443 32.2651 46.2439 35.5853 50.1493 39.4588C54.0548 43.3324 60.9643 43.0983 60.9643 43.0983C60.9643 43.0983 67.8954 43.3324 71.7793 39.4588C75.6847 35.5853 75.3629 32.2651 75.3629 28.2851C75.3629 24.3477 75.6847 21.0063 71.7793 17.154ZM14.6573 6.81032V20.2826C4.20705 8.68325 6.30997 4.10735 7.10393 3.44757C10.0008 1.02128 15.1508 1.74491 20.9231 3.89452L14.6573 6.81032ZM63.2604 32.4566C63.2604 33.2228 62.8741 35.1171 60.9643 35.1171C59.0545 35.1171 58.6683 33.2228 58.6683 32.4566V23.8582C58.6683 22.0066 60.2348 21.5383 60.9643 21.5383C61.6939 21.5383 63.2604 21.9853 63.2604 23.8582V32.4566Z" fill="#737373"/>
</g>
<defs>
<clipPath id="clip0_1_1055">
<rect width="137.333" height="45.3333" fill="white" transform="translate(0.666687)"/>
</clipPath>
</defs>
</svg>
