<svg width="119" height="63" viewBox="0 0 139 83" fill="none" xmlns="http://www.w3.org/2000/svg">
<g id="fa-brands-5" clip-path="url(#clip0_1_1067)">
<path id="Vector" d="M39.5161 30.3181C39.3606 35.1689 41.8056 37.3169 41.8661 38.6811C41.8373 38.9588 41.7419 39.2256 41.5879 39.4592C41.4338 39.6928 41.2256 39.8865 40.9806 40.0239L38.2159 41.9428C37.8581 42.1915 37.4363 42.3341 36.9998 42.354C36.907 42.3497 35.2309 42.7459 32.5763 36.8693C30.9568 38.8738 28.8962 40.4843 26.5522 41.5775C24.2082 42.6707 21.6431 43.2176 19.0531 43.1764C15.5367 43.367 6.00719 41.1975 6.49749 31.1383C6.15407 22.9402 13.8542 17.8474 21.8178 18.2779C23.3513 18.2822 26.4832 18.3571 31.9672 19.6207V16.2755C32.5482 10.6087 28.7922 6.21199 22.2886 6.87161C21.7703 6.87375 18.0984 6.76453 12.3876 9.03679C10.7979 9.76066 10.5949 9.64073 10.0657 9.64073C8.46518 9.64073 9.12395 5.04052 9.43066 4.458C10.556 3.08736 17.1761 0.528118 23.6731 0.564526C28.0173 0.18359 32.3381 1.51294 35.7017 4.26525C37.069 5.7817 38.1122 7.55719 38.7681 9.4845C39.4241 11.4118 39.6793 13.451 39.5183 15.4788L39.5161 30.3181ZM20.8501 37.2548C27.8547 37.1542 30.8203 32.978 31.4964 30.7293C32.0277 28.577 31.9391 27.2149 31.9391 24.8612C29.8505 24.3644 26.8439 23.8226 23.3945 23.8183C20.1222 23.5741 14.1458 25.024 14.379 30.7271C14.1112 34.3229 16.7809 37.4518 20.8501 37.2548ZM57.7674 42.1913C56.0697 42.3455 55.2792 41.1504 55.0287 39.9704L44.2723 4.70857C44.0628 4.1132 43.9245 3.49855 43.8576 2.87105C43.8179 2.61235 43.8834 2.34861 44.0397 2.13779C44.1961 1.92696 44.4304 1.7863 44.6913 1.7467C44.7431 1.73813 44.2312 1.7467 49.4971 1.7467C51.3935 1.55824 52.0113 3.0381 52.2078 3.96757L59.923 34.128L67.0853 3.96757C67.1998 3.27796 67.7203 1.59679 69.85 1.77454H73.5564C74.0251 1.73599 75.9561 1.66746 76.2952 3.99541L83.5136 34.5414L91.4772 3.99541C91.5809 3.52853 92.0647 1.56038 94.216 1.77454H98.4754C98.659 1.7467 99.8037 1.60107 99.6093 3.61206C99.5165 4.00826 100.346 1.32909 88.2158 39.9982C87.9674 41.1783 87.1747 42.3733 85.477 42.2191H81.4401C79.0772 42.4654 78.7381 40.1503 78.7013 39.9169L71.5391 10.5488L64.4589 39.8869C64.4243 40.1203 64.0852 42.4354 61.7201 42.1891H57.7674V42.1913ZM116.837 43.397C115.567 43.3991 109.51 43.3327 104.448 40.7649C103.943 40.5532 103.514 40.1978 103.213 39.7437C102.913 39.2896 102.755 38.7573 102.761 38.2143V35.912C102.761 34.1023 104.1 34.4343 104.668 34.6506C106.836 35.5201 108.227 36.1797 110.891 36.7066C118.807 38.3192 122.288 36.214 123.142 35.7471C125.982 34.0745 126.207 30.2474 124.276 28.2621C122.012 26.3797 120.932 26.309 112.8 23.7647C111.798 23.4885 103.361 20.85 103.342 12.5512C103.21 6.50325 108.752 0.519551 118.357 0.568808C121.094 0.566667 128.386 1.4533 130.36 3.91402C130.652 4.36162 130.796 4.88846 130.775 5.42173V7.58691C130.775 8.53779 130.425 9.01323 129.723 9.01323C128.058 8.82905 125.103 6.62104 119.105 6.71098C117.617 6.63389 110.489 6.90587 110.808 12.0586C110.716 16.1191 116.556 17.6418 117.223 17.8174C125.099 20.1668 127.731 20.5566 130.857 24.1524C134.559 28.9175 132.563 34.4964 131.796 36.0255C127.675 44.0545 117.018 43.4013 116.837 43.397ZM125.52 65.8541C110.394 76.9305 88.4361 82.8264 69.688 82.8264C44.3912 82.9918 19.9469 73.7689 1.16034 56.9706C-0.250087 55.7092 0.994025 53.9809 2.709 54.9425C23.5489 66.7624 47.1439 72.973 71.1524 72.9578C89.0813 72.8625 106.815 69.2562 123.334 62.3461C125.878 61.2753 128.036 64.0165 125.52 65.8541ZM131.824 58.7246C129.889 56.2574 119.02 57.5724 114.154 58.1485C112.688 58.3134 112.439 57.052 113.768 56.1204C122.422 50.0874 136.637 51.8157 138.27 53.8438C139.9 55.8719 137.827 69.9938 129.725 76.7399C128.481 77.7829 127.291 77.2325 127.844 75.8619C129.667 71.3109 133.76 61.1939 131.824 58.7246Z" fill="#737373"/>
</g>
<defs>
<clipPath id="clip0_1_1067">
<rect width="138.667" height="82.6667" fill="white" transform="translate(0.333313 0.333496)"/>
</clipPath>
</defs>
</svg>
