<svg width="118" height="37" viewBox="0 0 138 57" fill="none" xmlns="http://www.w3.org/2000/svg">
<g id="fa-brands-4" clip-path="url(#clip0_1_1064)">
<path id="Vector" d="M36.074 5.05741L26.7825 7.00893L26.7396 37.215C26.7396 42.7938 30.9884 46.3998 36.6319 46.3998C39.7648 46.3998 42.0609 45.8271 43.3269 45.1483V37.9786C42.1038 38.4665 36.0955 40.2059 36.0955 34.6483V21.2423H43.3269V13.2241H36.0955L36.074 5.05741ZM55.1934 16.0029L54.614 13.2241H46.374V45.7211H55.88V23.8514C58.1332 20.9241 61.9313 21.4968 63.1544 21.8786V13.2241C61.8669 12.7786 57.425 11.9514 55.1934 16.0029ZM74.9994 0.666504L65.429 2.68166V10.3604L74.9994 8.34529V0.666504ZM10.3025 22.7907C10.3025 21.3271 11.5471 20.7544 13.5427 20.7332C16.4396 20.7332 20.1305 21.6029 23.0273 23.1514V14.2847C19.873 13.0544 16.7186 12.5665 13.5642 12.5665C5.83921 12.5665 0.689205 16.5544 0.689205 23.215C0.689205 33.6514 15.1736 31.9544 15.1736 36.4514C15.1736 38.1908 13.65 38.7635 11.5257 38.7635C8.37129 38.7635 4.29421 37.4695 1.09691 35.7514V44.2362C4.63754 45.7423 8.22108 46.3786 11.5042 46.3786C19.4223 46.3786 24.8727 43.0271 24.8727 36.2392C24.8727 25.018 10.3025 27.0332 10.3025 22.7907ZM138.001 29.8544C138.001 20.2029 133.28 12.5877 124.225 12.5877C115.169 12.5877 109.655 20.2029 109.655 29.7907C109.655 41.1392 116.157 46.3786 125.427 46.3786C129.976 46.3786 133.388 45.3604 135.984 43.9392V36.8544C133.388 38.1483 130.405 38.9332 126.628 38.9332C122.916 38.9332 119.654 37.6392 119.225 33.2271H137.872C137.915 32.7392 138.001 30.7665 138.001 29.8544ZM119.139 26.2907C119.139 22.0483 121.779 20.2665 124.16 20.2665C126.499 20.2665 128.989 22.0483 128.989 26.2907H119.139ZM94.9128 12.5877C91.179 12.5877 88.7757 14.3271 87.4453 15.5362L86.9517 13.2029H78.5615V56.6453L88.089 54.6514L88.1105 44.0029C89.4838 44.9998 91.5223 46.3786 94.8484 46.3786C101.672 46.3786 107.895 41.4574 107.895 29.4938C107.917 18.5483 101.608 12.5877 94.9128 12.5877ZM92.6382 38.5726C90.4065 38.5726 89.0761 37.7665 88.1534 36.7907L88.089 22.7907C89.0761 21.7089 90.4494 20.9241 92.6382 20.9241C96.1144 20.9241 98.5178 24.7847 98.5178 29.7059C98.5392 34.7756 96.1788 38.5726 92.6382 38.5726ZM65.4505 45.7211H75.0209V13.2241H65.4505V45.7211Z" fill="#737373"/>
</g>
<defs>
<clipPath id="clip0_1_1064">
<rect width="137.333" height="56" fill="white" transform="translate(0.666668 0.666504)"/>
</clipPath>
</defs>
</svg>
