<svg width="91" height="59" viewBox="0 0 111 79" fill="none" xmlns="http://www.w3.org/2000/svg">
<g id="fa-brands-2" clip-path="url(#clip0_1_1058)">
<path id="Vector" d="M0.333344 1.66031H17.1495V47.0132C17.1495 54.2062 20.3917 58.4872 23.0287 60.2691C20.2836 62.6813 11.962 64.811 5.69376 59.6607C2.01928 56.6183 0.333344 51.555 0.333344 46.8393V1.66031ZM105.359 39.3638V34.583H110.503V17.8935H104.861C102.678 7.83195 93.7948 0.356445 83.182 0.356445C70.9482 0.356445 60.9839 10.3528 60.9839 22.6743V61.6165C64.4422 62.1163 68.6354 61.5513 72.1586 58.5741C75.8547 55.5318 77.519 50.4901 77.519 45.7528V44.2968H85.9055V27.6073H77.519V22.5439C77.519 15.025 88.8018 15.025 88.8018 22.5439V39.2986C88.8018 51.5984 98.7445 61.6165 111 61.6165V44.9922C107.866 44.9922 105.359 42.4496 105.359 39.3638ZM41.7469 17.85V42.4062C41.7469 45.7528 36.6026 45.7528 36.6026 42.4062V17.85H20.0026V46.6872C20.0026 51.8592 21.7318 58.422 29.7292 60.5734C37.7266 62.703 42.3089 58.2699 42.3089 58.2699C41.855 61.1819 39.1748 63.3332 34.7654 63.7679C31.4151 64.1156 27.157 62.9855 25.0388 62.0728V77.3498C30.4641 78.9796 36.1703 79.4795 41.8117 78.3712C51.9922 76.3936 58.4117 67.8533 58.4117 56.4662V17.7413H41.7469V17.85Z" fill="#737373"/>
</g>
<defs>
<clipPath id="clip0_1_1058">
<rect width="110.667" height="78.6667" fill="white" transform="translate(0.333344 0.333496)"/>
</clipPath>
</defs>
</svg>
