<svg width="82" height="77" viewBox="0 0 102 97" fill="none" xmlns="http://www.w3.org/2000/svg">
<g id="fa-brands-6" clip-path="url(#clip0_1_1070)">
<path id="Vector" d="M90.2347 37.5489C87.0414 37.5489 84.2313 38.8745 82.1663 40.9485C74.5663 35.6674 64.3265 32.2678 52.9798 31.9044L58.8767 5.22107L77.6531 9.45447C77.6531 14.0727 81.3999 17.8358 85.9982 17.8358C90.6817 17.8358 94.4498 13.9658 94.4498 9.34757C94.4498 4.72931 90.703 0.859375 85.9982 0.859375C82.7198 0.859375 79.8884 2.84779 78.4834 5.56316L57.7484 0.944898C56.7052 0.666947 55.6834 1.41528 55.4067 2.46294L48.9349 31.883C37.6733 32.3534 27.54 35.7529 19.9187 41.034C17.8537 38.8745 14.9372 37.5489 11.7439 37.5489C-0.0925056 37.5489 -3.96702 53.499 6.86884 58.9511C6.48565 60.6402 6.31534 62.4362 6.31534 64.2322C6.31534 82.1493 26.4117 96.6669 51.0851 96.6669C75.8649 96.6669 95.9613 82.1493 95.9613 64.2322C95.9613 62.4362 95.7697 60.5547 95.3013 58.8656C105.924 53.3921 102.007 37.5489 90.2347 37.5489ZM24.0487 60.0843C24.0487 55.3805 27.7955 51.5961 32.5002 51.5961C37.0985 51.5961 40.8453 55.3591 40.8453 60.0843C40.8453 64.7026 37.0985 68.4656 32.5002 68.4656C27.8167 68.487 24.0487 64.7026 24.0487 60.0843ZM69.67 80.0754C61.9209 87.858 40.0576 87.858 32.3086 80.0754C31.4571 79.3271 31.4571 78.0015 32.3086 77.1462C33.0537 76.3979 34.3736 76.3979 35.1187 77.1462C41.0369 83.2398 60.6649 83.3467 66.8386 77.1462C67.5837 76.3979 68.9036 76.3979 69.6487 77.1462C70.5215 78.0015 70.5215 79.3271 69.67 80.0754ZM69.4996 68.487C64.9013 68.487 61.1545 64.7239 61.1545 60.1057C61.1545 55.4019 64.9013 51.6175 69.4996 51.6175C74.1831 51.6175 77.9512 55.3805 77.9512 60.1057C77.9299 64.7026 74.1831 68.487 69.4996 68.487Z" fill="#737373"/>
</g>
<defs>
<clipPath id="clip0_1_1070">
<rect width="101.333" height="96" fill="white" transform="translate(0.333313 0.666504)"/>
</clipPath>
</defs>
</svg>
