<svg width="20" height="20" viewBox="0 0 20 20" fill="none" xmlns="http://www.w3.org/2000/svg">
<g id="icn settings icn-xs" clip-path="url(#clip0_1_49)">
<path id="Vector" d="M18.9281 9.78851C18.9281 4.5465 14.7048 0.297241 9.49577 0.297241C4.28441 0.29842 0.0610962 4.5465 0.0610962 9.78969C0.0610962 14.5259 3.51097 18.4521 8.01961 19.1642V12.5321H5.62616V9.78969H8.02197V7.69689C8.02197 5.31877 9.43092 4.00532 11.585 4.00532C12.6179 4.00532 13.6967 4.19043 13.6967 4.19043V6.52493H12.507C11.3362 6.52493 10.9707 7.25711 10.9707 8.00816V9.78851H13.5859L13.1685 12.531H10.9696V19.163C15.4782 18.4509 18.9281 14.5247 18.9281 9.78851Z" fill="white"/>
</g>
<defs>
<clipPath id="clip0_1_49">
<rect width="18.8646" height="18.8646" fill="white" transform="translate(0.650574 0.297241)"/>
</clipPath>
</defs>
</svg>
