<svg width="33" height="33" viewBox="0 0 33 33" fill="none" xmlns="http://www.w3.org/2000/svg">
<g id="ant-design:facebook-filled" clip-path="url(#clip0_1_286)">
<path id="Vector" fill-rule="evenodd" clip-rule="evenodd" d="M32.1557 16.3338C32.1557 7.82209 25.2981 0.922363 16.84 0.922363C8.37809 0.924278 1.52048 7.82209 1.52048 16.3357C1.52048 24.0261 7.1222 30.4013 14.4431 31.5576V20.7888H10.5567V16.3357H14.4469V12.9375C14.4469 9.07606 16.7347 6.94335 20.2324 6.94335C21.9095 6.94335 23.6612 7.24392 23.6612 7.24392V11.0346H21.7296C19.8285 11.0346 19.235 12.2234 19.235 13.443V16.3338H23.4813L22.8036 20.7868H19.2331V31.5557C26.554 30.3994 32.1557 24.0242 32.1557 16.3338Z" fill="#23A6F0"/>
</g>
<defs>
<clipPath id="clip0_1_286">
<rect width="31.9672" height="31.9672" fill="white" transform="translate(0.854492 0.922363)"/>
</clipPath>
</defs>
</svg>
