<svg width="20" height="20" viewBox="0 0 20 20" fill="none" xmlns="http://www.w3.org/2000/svg">
<g clip-path="url(#clip0_1_43)">
<path d="M9.57196 0.29718C7.01227 0.29718 6.69039 0.308971 5.68467 0.353774C4.67895 0.400936 3.99393 0.558927 3.3938 0.792377C2.7643 1.02915 2.19411 1.40056 1.7231 1.88063C1.24332 2.35189 0.871958 2.922 0.634845 3.55133C0.401395 4.15028 0.242225 4.83648 0.196242 5.83867C0.151439 6.84674 0.139648 7.16744 0.139648 9.73067C0.139648 12.2915 0.151439 12.6122 0.196242 13.618C0.243404 14.6225 0.401395 15.3075 0.634845 15.9077C0.876548 16.5278 1.19843 17.0537 1.7231 17.5784C2.24659 18.103 2.77244 18.4261 3.39262 18.6666C3.99393 18.9001 4.67777 19.0592 5.68231 19.1052C6.68921 19.15 7.00991 19.1618 9.57196 19.1618C12.134 19.1618 12.4535 19.15 13.4604 19.1052C14.4638 19.0581 15.1512 18.9001 15.7513 18.6666C16.3804 18.4297 16.9502 18.0583 17.4208 17.5784C17.9455 17.0537 18.2674 16.5278 18.5091 15.9077C18.7414 15.3075 18.9005 14.6225 18.9477 13.618C18.9925 12.6122 19.0043 12.2915 19.0043 9.7295C19.0043 7.16744 18.9925 6.84674 18.9477 5.83984C18.9005 4.83648 18.7414 4.15028 18.5091 3.55133C18.272 2.92199 17.9006 2.35186 17.4208 1.88063C16.95 1.40038 16.3797 1.02895 15.7501 0.792377C15.1488 0.558927 14.4626 0.399757 13.4593 0.353774C12.4524 0.308971 12.1328 0.29718 9.56961 0.29718H9.57314H9.57196ZM8.72659 1.99735H9.57314C12.0916 1.99735 12.3899 2.00561 13.3838 2.05159C14.3034 2.09286 14.8034 2.24731 15.1358 2.37583C15.5756 2.54679 15.8904 2.75194 16.2206 3.08207C16.5507 3.4122 16.7547 3.72583 16.9256 4.16679C17.0553 4.4981 17.2086 4.99801 17.2499 5.91766C17.2959 6.91159 17.3053 7.20989 17.3053 9.72714C17.3053 12.2444 17.2959 12.5439 17.2499 13.5378C17.2086 14.4574 17.0541 14.9562 16.9256 15.2887C16.7744 15.6982 16.533 16.0685 16.2194 16.3722C15.8893 16.7023 15.5756 16.9063 15.1347 17.0773C14.8045 17.207 14.3046 17.3602 13.3838 17.4027C12.3899 17.4475 12.0916 17.4581 9.57314 17.4581C7.05471 17.4581 6.75524 17.4475 5.76131 17.4027C4.84166 17.3602 4.34292 17.207 4.01043 17.0773C3.60072 16.9263 3.23006 16.6853 2.92572 16.3722C2.6118 16.0681 2.37006 15.6974 2.21829 15.2875C2.08978 14.9562 1.93533 14.4563 1.89406 13.5366C1.84926 12.5427 1.83982 12.2444 1.83982 9.72478C1.83982 7.20635 1.84926 6.90923 1.89406 5.9153C1.9365 4.99565 2.08978 4.49574 2.21947 4.16325C2.39043 3.72347 2.59559 3.40866 2.92572 3.07853C3.25585 2.7484 3.56947 2.54443 4.01043 2.37347C4.34292 2.24377 4.84166 2.0905 5.76131 2.04805C6.63144 2.00797 6.96864 1.99618 8.72659 1.995V1.99735ZM14.6076 3.56312C14.459 3.56312 14.3118 3.5924 14.1745 3.64928C14.0372 3.70616 13.9124 3.78953 13.8073 3.89464C13.7022 3.99974 13.6188 4.12452 13.5619 4.26185C13.505 4.39917 13.4758 4.54636 13.4758 4.695C13.4758 4.84364 13.505 4.99082 13.5619 5.12815C13.6188 5.26547 13.7022 5.39025 13.8073 5.49536C13.9124 5.60046 14.0372 5.68383 14.1745 5.74072C14.3118 5.7976 14.459 5.82687 14.6076 5.82687C14.9078 5.82687 15.1957 5.70762 15.408 5.49536C15.6203 5.28309 15.7395 4.99519 15.7395 4.695C15.7395 4.3948 15.6203 4.10691 15.408 3.89464C15.1957 3.68237 14.9078 3.56312 14.6076 3.56312ZM9.57314 4.886C8.93065 4.87598 8.29258 4.99387 7.69609 5.23281C7.09959 5.47174 6.55659 5.82696 6.09869 6.27777C5.64079 6.72858 5.27715 7.26597 5.02894 7.85867C4.78072 8.45136 4.65289 9.08751 4.65289 9.73008C4.65289 10.3727 4.78072 11.0088 5.02894 11.6015C5.27715 12.1942 5.64079 12.7316 6.09869 13.1824C6.55659 13.6332 7.09959 13.9884 7.69609 14.2274C8.29258 14.4663 8.93065 14.5842 9.57314 14.5742C10.8448 14.5543 12.0576 14.0352 12.9499 13.129C13.8421 12.2227 14.3422 11.0019 14.3422 9.73008C14.3422 8.45829 13.8421 7.23749 12.9499 6.33121C12.0576 5.42492 10.8448 4.90584 9.57314 4.886ZM9.57314 6.585C10.4071 6.585 11.2069 6.91629 11.7966 7.506C12.3863 8.09571 12.7176 8.89552 12.7176 9.7295C12.7176 10.5635 12.3863 11.3633 11.7966 11.953C11.2069 12.5427 10.4071 12.874 9.57314 12.874C8.73917 12.874 7.93935 12.5427 7.34965 11.953C6.75994 11.3633 6.42864 10.5635 6.42864 9.7295C6.42864 8.89552 6.75994 8.09571 7.34965 7.506C7.93935 6.91629 8.73917 6.585 9.57314 6.585Z" fill="white"/>
</g>
<defs>
<clipPath id="clip0_1_43">
<rect width="18.8653" height="18.865" fill="white" transform="translate(0.139648 0.296936)"/>
</clipPath>
</defs>
</svg>
