<svg width="33" height="33" viewBox="0 0 33 33" fill="none" xmlns="http://www.w3.org/2000/svg">
<g id="ant-design:instagram-outlined">
<path id="Vector" d="M17.1107 2.25439C13.1346 2.25439 12.6346 2.27271 11.0724 2.3423C9.51015 2.41556 8.44607 2.66098 7.51386 3.02361C6.53604 3.3914 5.65034 3.96832 4.91869 4.71404C4.17343 5.44606 3.59658 6.33165 3.22826 7.30921C2.86563 8.23959 2.61838 9.3055 2.54696 10.8622C2.47736 12.4281 2.45905 12.9263 2.45905 16.9079C2.45905 20.8858 2.47736 21.3839 2.54696 22.9462C2.62021 24.5066 2.86563 25.5706 3.22826 26.5029C3.6037 27.4662 4.10369 28.283 4.91869 29.098C5.73186 29.913 6.54868 30.4148 7.51203 30.7885C8.44607 31.1511 9.50832 31.3983 11.0687 31.4698C12.6328 31.5394 13.1309 31.5577 17.1107 31.5577C21.0904 31.5577 21.5868 31.5394 23.1508 31.4698C24.7094 31.3965 25.7771 31.1511 26.7093 30.7885C27.6865 30.4205 28.5716 29.8436 29.3027 29.098C30.1177 28.283 30.6177 27.4662 30.9931 26.5029C31.3539 25.5706 31.6012 24.5066 31.6744 22.9462C31.744 21.3839 31.7623 20.8858 31.7623 16.906C31.7623 12.9263 31.744 12.4281 31.6744 10.8641C31.6012 9.3055 31.3539 8.23959 30.9931 7.30921C30.6248 6.33163 30.048 5.44603 29.3027 4.71404C28.5713 3.96804 27.6855 3.39108 26.7075 3.02361C25.7735 2.66098 24.7076 2.41373 23.149 2.3423C21.5849 2.27271 21.0886 2.25439 17.107 2.25439H17.1125H17.1107ZM15.7975 4.89535H17.1125C21.0245 4.89535 21.4879 4.90817 23.0318 4.9796C24.4603 5.0437 25.2368 5.28362 25.7533 5.48325C26.4365 5.74881 26.9255 6.06748 27.4383 6.58029C27.9511 7.0931 28.2679 7.58027 28.5335 8.26523C28.7349 8.77987 28.973 9.55641 29.0371 10.9849C29.1085 12.5289 29.1232 12.9922 29.1232 16.9024C29.1232 20.8125 29.1085 21.2777 29.0371 22.8216C28.973 24.2502 28.7331 25.0249 28.5335 25.5413C28.2986 26.1775 27.9236 26.7527 27.4364 27.2244C26.9236 27.7373 26.4365 28.0541 25.7515 28.3197C25.2387 28.5211 24.4621 28.7592 23.0318 28.8251C21.4879 28.8947 21.0245 28.9112 17.1125 28.9112C13.2005 28.9112 12.7353 28.8947 11.1914 28.8251C9.76289 28.7592 8.98818 28.5211 8.47171 28.3197C7.83528 28.0851 7.25952 27.7108 6.78677 27.2244C6.29915 26.752 5.92365 26.1762 5.6879 25.5395C5.48827 25.0249 5.24835 24.2483 5.18425 22.8198C5.11466 21.2759 5.1 20.8125 5.1 16.8987C5.1 12.9867 5.11466 12.5252 5.18425 10.9813C5.25018 9.55274 5.48827 8.77621 5.68973 8.25974C5.95529 7.5766 6.27397 7.0876 6.78677 6.5748C7.29958 6.06199 7.78675 5.74515 8.47171 5.47959C8.98818 5.27813 9.76289 5.04004 11.1914 4.97411C12.543 4.91184 13.0668 4.89352 15.7975 4.89169V4.89535ZM24.9328 7.32752C24.7019 7.32752 24.4733 7.373 24.26 7.46136C24.0467 7.54972 23.8529 7.67922 23.6896 7.84249C23.5263 8.00575 23.3968 8.19957 23.3085 8.41289C23.2201 8.6262 23.1746 8.85483 23.1746 9.08572C23.1746 9.31661 23.2201 9.54524 23.3085 9.75855C23.3968 9.97187 23.5263 10.1657 23.6896 10.329C23.8529 10.4922 24.0467 10.6217 24.26 10.7101C24.4733 10.7984 24.7019 10.8439 24.9328 10.8439C25.3991 10.8439 25.8463 10.6587 26.1761 10.329C26.5058 9.99923 26.691 9.55202 26.691 9.08572C26.691 8.61942 26.5058 8.17221 26.1761 7.84249C25.8463 7.51276 25.3991 7.32752 24.9328 7.32752ZM17.1125 9.38242C16.1145 9.36685 15.1234 9.54997 14.1968 9.92112C13.2702 10.2923 12.4268 10.844 11.7155 11.5443C11.0042 12.2446 10.4394 13.0793 10.0538 14C9.66823 14.9207 9.46967 15.9088 9.46967 16.9069C9.46967 17.9051 9.66823 18.8932 10.0538 19.8139C10.4394 20.7346 11.0042 21.5693 11.7155 22.2696C12.4268 22.9699 13.2702 23.5216 14.1968 23.8928C15.1234 24.2639 16.1145 24.4471 17.1125 24.4315C19.0878 24.4007 20.9718 23.5943 22.3578 22.1866C23.7437 20.7788 24.5206 18.8825 24.5206 16.9069C24.5206 14.9314 23.7437 13.0351 22.3578 11.6273C20.9718 10.2196 19.0878 9.41323 17.1125 9.38242ZM17.1125 12.0215C18.408 12.0215 19.6504 12.5362 20.5664 13.4522C21.4824 14.3682 21.997 15.6106 21.997 16.906C21.997 18.2015 21.4824 19.4439 20.5664 20.3599C19.6504 21.2759 18.408 21.7905 17.1125 21.7905C15.8171 21.7905 14.5747 21.2759 13.6587 20.3599C12.7426 19.4439 12.228 18.2015 12.228 16.906C12.228 15.6106 12.7426 14.3682 13.6587 13.4522C14.5747 12.5362 15.8171 12.0215 17.1125 12.0215Z" fill="#23A6F0"/>
</g>
</svg>
