<svg width="40" height="40" viewBox="0 0 40 40" fill="none" xmlns="http://www.w3.org/2000/svg">
<g id="icn favorite">
<path id="Vector" d="M27.717 7.12203C28.6822 7.12131 29.6379 7.31324 30.528 7.68658C31.4181 8.05993 32.2247 8.60717 32.9006 9.29625C34.2885 10.7055 35.0665 12.6041 35.0665 14.582C35.0665 16.5602 34.2883 18.4589 32.9002 19.8682L32.8996 19.8688L20.3124 32.6139L19.8802 33.0516L19.448 32.6139L6.8608 19.8688L6.86024 19.8682C5.47205 18.4589 4.69393 16.5602 4.69393 14.582C4.69393 12.6038 5.47205 10.7051 6.86024 9.29578C7.5364 8.60739 8.34292 8.06058 9.23271 7.68727C10.1228 7.31384 11.0784 7.12151 12.0436 7.12151C13.0088 7.12151 13.9644 7.31384 14.8545 7.68727C15.7446 8.0607 16.5513 8.60774 17.2276 9.29645L17.2287 9.29757L19.881 12.0125L22.5172 9.32427C22.5178 9.32371 22.5183 9.32314 22.5189 9.32258C23.1928 8.62553 24.0003 8.07142 24.8931 7.69334C25.7864 7.31503 26.7469 7.12073 27.717 7.12203ZM27.717 7.12203C27.7172 7.12203 27.7175 7.12203 27.7177 7.12203L27.7168 7.72952L27.7163 7.12203C27.7165 7.12203 27.7168 7.12203 27.717 7.12203ZM20.3071 31.7548L19.8802 32.187M20.3071 31.7548L19.8802 32.187M20.3071 31.7548L20.3124 31.7602L19.8802 32.187M20.3071 31.7548L19.8802 32.187M27.7166 5.90705L27.7163 5.90705C26.589 5.9061 25.4729 6.13022 24.4334 6.56628C23.3938 7.00233 22.4518 7.64155 21.6626 8.44644L21.6603 8.44875L20.3117 9.80952L19.8802 10.2449L19.4487 9.80952L18.1001 8.44874L18.0985 8.4471C17.3081 7.6435 16.3657 7.00527 15.3261 6.56962C14.2866 6.13397 13.1707 5.9096 12.0436 5.9096C10.9165 5.9096 9.80059 6.13397 8.76105 6.56962C7.72162 7.00523 6.77929 7.64336 5.98898 8.44683C4.37758 10.0872 3.47471 12.2947 3.47471 14.5941C3.47471 16.8933 4.37737 19.1006 5.9884 20.7409C5.98859 20.7411 5.98878 20.7413 5.98898 20.7415L19.8802 34.8094L33.7714 20.7415C33.7716 20.7413 33.7718 20.7411 33.772 20.7409C35.383 19.1006 36.2857 16.8933 36.2857 14.5941C36.2857 12.2948 35.3829 10.0873 33.7715 8.44692L27.7166 5.90705ZM27.7166 5.90705C28.844 5.90736 29.9599 6.1321 30.9995 6.56817C32.039 7.00422 32.9813 7.64285 33.7714 8.44683L27.7166 5.90705Z" fill="#BDBDBD" stroke="#252B42" stroke-width="1.21498"/>
</g>
</svg>
