<svg width="19" height="20" viewBox="0 0 19 20" fill="none" xmlns="http://www.w3.org/2000/svg">
<g id="icn settings icn-xs" clip-path="url(#clip0_1_142)">
<path id="Vector" d="M9.50684 3.60032L8.66146 2.73137C6.67714 0.691627 3.03863 1.39551 1.72518 3.95992C1.10854 5.16608 0.969413 6.90752 2.0954 9.13001C3.18011 11.27 5.43679 13.8332 9.50684 16.6252C13.5769 13.8332 15.8324 11.27 16.9183 9.13001C18.0443 6.90634 17.9063 5.16608 17.2885 3.95992C15.975 1.39551 12.3365 0.690448 10.3522 2.73019L9.50684 3.60032ZM9.50684 18.0459C-8.57137 6.09988 3.94059 -3.22396 9.29932 1.70796C9.37007 1.77281 9.43963 1.84001 9.50684 1.90957C9.57336 1.84007 9.64258 1.77321 9.71435 1.70914C15.0719 -3.22632 27.585 6.0987 9.50684 18.0459Z" fill="#23A6F0"/>
</g>
<defs>
<clipPath id="clip0_1_142">
<rect width="18.8646" height="18.8646" fill="white" transform="translate(0.074646 0.36026)"/>
</clipPath>
</defs>
</svg>
