<svg width="20" height="20" viewBox="0 0 20 20" fill="none" xmlns="http://www.w3.org/2000/svg">
<g clip-path="url(#clip0_1_34)">
<path d="M-0.0125122 5.01311C-0.0125122 4.38771 0.235928 3.78792 0.678153 3.34569C1.12038 2.90347 1.72017 2.65503 2.34557 2.65503H16.494C17.1194 2.65503 17.7192 2.90347 18.1615 3.34569C18.6037 3.78792 18.8521 4.38771 18.8521 5.01311V14.4454C18.8521 15.0708 18.6037 15.6706 18.1615 16.1128C17.7192 16.5551 17.1194 16.8035 16.494 16.8035H2.34557C1.72017 16.8035 1.12038 16.5551 0.678153 16.1128C0.235928 15.6706 -0.0125122 15.0708 -0.0125122 14.4454V5.01311ZM2.34557 3.83407C2.03287 3.83407 1.73297 3.95829 1.51186 4.1794C1.29075 4.40051 1.16653 4.70041 1.16653 5.01311V5.26896L9.4198 10.2209L17.6731 5.26896V5.01311C17.6731 4.70041 17.5489 4.40051 17.3277 4.1794C17.1066 3.95829 16.8067 3.83407 16.494 3.83407H2.34557ZM17.6731 6.64372L12.0632 10.0099L17.6731 13.4008V6.6449V6.64372ZM17.633 14.7532L10.9184 10.6961L9.4198 11.5957L7.92006 10.6961L1.20661 14.752C1.27405 15.0024 1.4222 15.2237 1.62811 15.3814C1.83401 15.5391 2.08619 15.6246 2.34557 15.6245H16.494C16.7533 15.6246 17.0053 15.5394 17.2112 15.3819C17.4171 15.2244 17.5653 15.0034 17.633 14.7532ZM1.16653 13.4008L6.7764 10.0099L1.16653 6.64372V13.3996V13.4008Z" fill="white"/>
</g>
<defs>
<clipPath id="clip0_1_34">
<rect width="18.8646" height="18.8646" fill="white" transform="translate(0.577026 0.296936)"/>
</clipPath>
</defs>
</svg>
