<svg width="20" height="20" viewBox="0 0 20 20" fill="none" xmlns="http://www.w3.org/2000/svg">
<g clip-path="url(#clip0_1_30)">
<path d="M4.7542 1.8628C4.6846 1.77327 4.59674 1.69957 4.49646 1.6466C4.39619 1.59363 4.28579 1.5626 4.1726 1.55557C4.05941 1.54855 3.94602 1.56569 3.83997 1.60585C3.73391 1.64601 3.63762 1.70828 3.55747 1.78852L2.33835 3.00883C1.76887 3.57948 1.559 4.38713 1.80778 5.09573C2.84031 8.02869 4.51992 10.6916 6.72202 12.8868C8.9173 15.0889 11.5802 16.7685 14.5131 17.8011C15.2217 18.0498 16.0294 17.84 16.6 17.2705L17.8191 16.0514C17.8994 15.9712 17.9616 15.8749 18.0018 15.7689C18.042 15.6628 18.0591 15.5494 18.0521 15.4362C18.0451 15.323 18.014 15.2126 17.9611 15.1124C17.9081 15.0121 17.8344 14.9242 17.7449 14.8546L15.0248 12.7394C14.9292 12.6653 14.8179 12.6138 14.6994 12.5888C14.581 12.5639 14.4584 12.5662 14.341 12.5956L11.7589 13.2405C11.4142 13.3267 11.0531 13.3221 10.7108 13.2273C10.3684 13.1324 10.0564 12.9506 9.8052 12.6994L6.90948 9.80245C6.65808 9.55136 6.47598 9.23944 6.38094 8.89707C6.28589 8.5547 6.28113 8.19354 6.36713 7.84879L7.01324 5.26669C7.04261 5.14925 7.04492 5.02668 7.02 4.90822C6.99508 4.78976 6.94359 4.6785 6.8694 4.58285L4.7542 1.8628ZM2.6673 0.899529C2.87363 0.693137 3.1215 0.533001 3.39446 0.429754C3.66742 0.326506 3.95922 0.28251 4.25049 0.300687C4.54176 0.318863 4.82583 0.398796 5.08384 0.535178C5.34184 0.67156 5.56789 0.861271 5.74695 1.09171L7.86215 3.81058C8.25005 4.30931 8.38682 4.95896 8.23354 5.57206L7.58861 8.15416C7.55527 8.2879 7.55707 8.42798 7.59384 8.56082C7.63061 8.69366 7.70111 8.81473 7.79848 8.91228L10.6954 11.8092C10.793 11.9067 10.9143 11.9774 11.0474 12.0141C11.1804 12.0509 11.3208 12.0526 11.4547 12.019L14.0356 11.3741C14.3382 11.2985 14.654 11.2926 14.9591 11.3569C15.2643 11.4213 15.5508 11.5541 15.7971 11.7455L18.5159 13.8607C19.4934 14.6212 19.583 16.0655 18.7081 16.9392L17.489 18.1583C16.6165 19.0308 15.3125 19.414 14.0969 18.986C10.9856 17.8913 8.16077 16.1101 5.83184 13.7746C3.49651 11.4461 1.71535 8.6216 0.620488 5.51075C0.193675 4.29634 0.576863 2.99114 1.44935 2.11866L2.66848 0.899529H2.6673Z" fill="white"/>
</g>
<defs>
<clipPath id="clip0_1_30">
<rect width="18.8652" height="18.8651" fill="white" transform="translate(0.445435 0.296692)"/>
</clipPath>
</defs>
</svg>
