<svg width="20" height="20" viewBox="0 0 20 20" fill="none" xmlns="http://www.w3.org/2000/svg">
<g id="icn settings icn-xs" clip-path="url(#clip0_1_131)">
<path id="Vector" d="M14.6572 12.4884C15.7989 10.9305 16.3102 8.999 16.0889 7.08031C15.8677 5.16161 14.9301 3.39721 13.4638 2.14011C11.9975 0.883007 10.1106 0.225908 8.18057 0.300274C6.25059 0.37464 4.41985 1.17499 3.05462 2.54119C1.68939 3.9074 0.890353 5.73871 0.817368 7.66875C0.744383 9.59878 1.40283 11.4852 2.66098 12.9506C3.91913 14.416 5.6842 15.3524 7.60306 15.5723C9.52191 15.7922 11.453 15.2795 13.0101 14.1367H13.0089C13.0443 14.1838 13.082 14.2286 13.1245 14.2723L17.6638 18.8116C17.8849 19.0328 18.1848 19.1572 18.4975 19.1573C18.8103 19.1574 19.1103 19.0332 19.3315 18.8122C19.5528 18.5911 19.6771 18.2912 19.6772 17.9784C19.6773 17.6656 19.5532 17.3656 19.3321 17.1444L14.7928 12.6051C14.7507 12.5624 14.7053 12.523 14.6572 12.4872V12.4884ZM14.9614 7.95616C14.9614 8.80774 14.7937 9.65099 14.4678 10.4377C14.1419 11.2245 13.6643 11.9394 13.0621 12.5415C12.4599 13.1437 11.7451 13.6214 10.9583 13.9473C10.1715 14.2731 9.32829 14.4409 8.4767 14.4409C7.62512 14.4409 6.78187 14.2731 5.99511 13.9473C5.20835 13.6214 4.49348 13.1437 3.89132 12.5415C3.28916 11.9394 2.81149 11.2245 2.48561 10.4377C2.15972 9.65099 1.99199 8.80774 1.99199 7.95616C1.99199 6.2363 2.6752 4.58689 3.89132 3.37077C5.10744 2.15465 6.75685 1.47144 8.4767 1.47144C10.1966 1.47144 11.846 2.15465 13.0621 3.37077C14.2782 4.58689 14.9614 6.2363 14.9614 7.95616Z" fill="#23A6F0"/>
</g>
<defs>
<clipPath id="clip0_1_131">
<rect width="18.8653" height="18.865" fill="white" transform="translate(0.81189 0.292389)"/>
</clipPath>
</defs>
</svg>
