<svg width="20" height="20" viewBox="0 0 20 20" fill="none" xmlns="http://www.w3.org/2000/svg">
<g id="icn settings icn-xs" clip-path="url(#clip0_1_52)">
<path id="Vector" d="M5.7162 16.8046C12.8352 16.8046 16.7296 10.9059 16.7296 5.79943C16.7296 5.63437 16.7296 5.46694 16.7225 5.30188C17.4807 4.75302 18.1351 4.0735 18.655 3.29515C17.9467 3.60742 17.1962 3.81323 16.4278 3.9059C17.2372 3.42206 17.8435 2.66079 18.1338 1.76358C17.3733 2.21412 16.541 2.5304 15.6732 2.69856C15.0898 2.07723 14.3178 1.66562 13.4767 1.52749C12.6357 1.38935 11.7726 1.5324 11.0211 1.93447C10.2696 2.33654 9.67165 2.9752 9.31987 3.75151C8.9681 4.52783 8.88213 5.39848 9.07528 6.2286C7.53633 6.15144 6.03078 5.75164 4.65629 5.05516C3.2818 4.35867 2.06906 3.38104 1.09672 2.18568C0.603103 3.03822 0.452462 4.04667 0.675385 5.00625C0.898309 5.96583 1.47809 6.8046 2.29698 7.35223C1.68334 7.33138 1.08319 7.1666 0.544929 6.87118V6.92424C0.545988 7.81734 0.855379 8.68268 1.42081 9.374C1.98623 10.0653 2.77302 10.5402 3.64816 10.7184C3.31598 10.8099 2.97284 10.8555 2.62829 10.854C2.38539 10.8547 2.14298 10.8322 1.90436 10.7868C2.15171 11.5556 2.63333 12.2277 3.28177 12.7092C3.93021 13.1906 4.71299 13.4571 5.52048 13.4714C4.14873 14.5488 2.45427 15.1332 0.709995 15.1303C0.402644 15.1316 0.0955069 15.1139 -0.209656 15.0773C1.56069 16.2059 3.61668 16.8052 5.7162 16.8046Z" fill="white"/>
</g>
<defs>
<clipPath id="clip0_1_52">
<rect width="18.8646" height="18.8646" fill="white" transform="translate(0.379822 0.297241)"/>
</clipPath>
</defs>
</svg>
