<svg width="33" height="28" viewBox="0 0 33 28" fill="none" xmlns="http://www.w3.org/2000/svg">
<g id="ant-design:twitter-outlined">
<path id="Vector" d="M11.2704 25.8939C22.3288 25.8939 28.3781 16.6675 28.3781 8.68044C28.3781 8.42226 28.3781 8.16039 28.3671 7.9022C29.5448 7.04372 30.5613 5.98086 31.3688 4.76344C30.2687 5.25186 29.1029 5.57377 27.9092 5.71871C29.1666 4.96194 30.1083 3.77122 30.5593 2.36787C29.378 3.07257 28.0851 3.56726 26.7371 3.83029C25.8308 2.85846 24.6316 2.21465 23.3252 1.99859C22.0188 1.78252 20.6781 2.00627 19.5108 2.63516C18.3434 3.26404 17.4146 4.26298 16.8682 5.47724C16.3218 6.69149 16.1882 8.0533 16.4883 9.35172C14.0977 9.23102 11.7591 8.60569 9.62404 7.5163C7.48898 6.4269 5.60518 4.89777 4.0948 3.02808C3.32805 4.36156 3.09405 5.93891 3.44033 7.43981C3.7866 8.94071 4.6872 10.2526 5.95922 11.1092C5.00603 11.0766 4.07378 10.8189 3.23768 10.3568V10.4398C3.23933 11.8367 3.71992 13.1902 4.59822 14.2715C5.47653 15.3528 6.69867 16.0956 8.05807 16.3743C7.54208 16.5174 7.00907 16.5888 6.47386 16.5864C6.09655 16.5875 5.72 16.5523 5.34935 16.4813C5.73357 17.6838 6.48169 18.7351 7.48894 19.4881C8.49619 20.2411 9.71212 20.658 10.9664 20.6804C8.83563 22.3656 6.20354 23.2796 3.49409 23.2752C3.01666 23.2772 2.53957 23.2495 2.06555 23.1922C4.81551 24.9575 8.00917 25.8949 11.2704 25.8939Z" fill="#23A6F0"/>
</g>
</svg>
