<svg width="15" height="15" viewBox="0 0 15 15" fill="none" xmlns="http://www.w3.org/2000/svg">
<g id="icn settings icn-xs" clip-path="url(#clip0_1_125)">
<path id="Vector" d="M7.16558 7.07643C8.10368 7.07643 9.00336 6.70377 9.6667 6.04044C10.33 5.3771 10.7027 4.47742 10.7027 3.53932C10.7027 2.60121 10.33 1.70153 9.6667 1.0382C9.00336 0.374857 8.10368 0.00219727 7.16558 0.00219727C6.22747 0.00219727 5.32779 0.374857 4.66446 1.0382C4.00112 1.70153 3.62846 2.60121 3.62846 3.53932C3.62846 4.47742 4.00112 5.3771 4.66446 6.04044C5.32779 6.70377 6.22747 7.07643 7.16558 7.07643ZM9.52365 3.53932C9.52365 4.16472 9.27521 4.7645 8.83299 5.20673C8.39076 5.64895 7.79098 5.89739 7.16558 5.89739C6.54017 5.89739 5.94039 5.64895 5.49816 5.20673C5.05594 4.7645 4.8075 4.16472 4.8075 3.53932C4.8075 2.91391 5.05594 2.31413 5.49816 1.8719C5.94039 1.42968 6.54017 1.18124 7.16558 1.18124C7.79098 1.18124 8.39076 1.42968 8.83299 1.8719C9.27521 2.31413 9.52365 2.91391 9.52365 3.53932ZM14.2398 12.9716C14.2398 14.1507 13.0608 14.1507 13.0608 14.1507H1.27038C1.27038 14.1507 0.0913391 14.1507 0.0913391 12.9716C0.0913391 11.7926 1.27038 8.25547 7.16558 8.25547C13.0608 8.25547 14.2398 11.7926 14.2398 12.9716ZM13.0608 12.9669C13.0596 12.6769 12.8792 11.8044 12.0798 11.005C11.3111 10.2363 9.8644 9.43451 7.16558 9.43451C4.46558 9.43451 3.02007 10.2363 2.25134 11.005C1.45195 11.8044 1.27274 12.6769 1.27038 12.9669H13.0608Z" fill="#23A6F0"/>
</g>
<defs>
<clipPath id="clip0_1_125">
<rect width="14.1485" height="14.1485" fill="white" transform="translate(0.0913391 0.00219727)"/>
</clipPath>
</defs>
</svg>
