<svg width="40" height="40" viewBox="0 0 40 40" fill="none" xmlns="http://www.w3.org/2000/svg">
<g id="icn favorite">
<path id="Vector" d="M25.1358 19.8794C25.1358 21.1684 24.6237 22.4045 23.7123 23.3159C22.8009 24.2273 21.5648 24.7394 20.2758 24.7394C18.9869 24.7394 17.7508 24.2273 16.8394 23.3159C15.9279 22.4045 15.4159 21.1684 15.4159 19.8794C15.4159 18.5905 15.9279 17.3544 16.8394 16.443C17.7508 15.5316 18.9869 15.0195 20.2758 15.0195C21.5648 15.0195 22.8009 15.5316 23.7123 16.443C24.6237 17.3544 25.1358 18.5905 25.1358 19.8794Z" fill="black"/>
<path id="Vector_2" d="M4.72412 19.8793C4.72412 19.8793 10.556 9.1875 20.2758 9.1875C29.9957 9.1875 35.8276 19.8793 35.8276 19.8793C35.8276 19.8793 29.9957 30.5711 20.2758 30.5711C10.556 30.5711 4.72412 19.8793 4.72412 19.8793ZM20.2758 26.6832C22.0803 26.6832 23.8109 25.9664 25.0869 24.6904C26.3629 23.4144 27.0797 21.6838 27.0797 19.8793C27.0797 18.0748 26.3629 16.3442 25.0869 15.0682C23.8109 13.7923 22.0803 13.0754 20.2758 13.0754C18.4713 13.0754 16.7408 13.7923 15.4648 15.0682C14.1888 16.3442 13.472 18.0748 13.472 19.8793C13.472 21.6838 14.1888 23.4144 15.4648 24.6904C16.7408 25.9664 18.4713 26.6832 20.2758 26.6832Z" fill="black"/>
</g>
</svg>
