<svg width="20" height="20" viewBox="0 0 20 20" fill="none" xmlns="http://www.w3.org/2000/svg">
<g id="icn settings icn-xs" clip-path="url(#clip0_1_46)">
<path id="Vector" d="M10.3614 2.65414H10.4663C11.4355 2.65768 16.3462 2.69305 17.6703 3.04912C18.0705 3.15779 18.4353 3.36961 18.7281 3.66341C19.0208 3.95721 19.2313 4.3227 19.3386 4.72336C19.4577 5.17139 19.5414 5.76445 19.598 6.37637L19.6098 6.49899L19.6357 6.80554L19.6452 6.92816C19.7218 8.0058 19.7312 9.01506 19.7324 9.23554V9.32397C19.7312 9.5527 19.7206 10.6303 19.6357 11.7528L19.6263 11.8766L19.6157 11.9992C19.5567 12.6736 19.4695 13.3433 19.3386 13.8362C19.2317 14.237 19.0213 14.6026 18.7284 14.8965C18.4356 15.1903 18.0707 15.402 17.6703 15.5104C16.3026 15.8782 11.1042 15.9042 10.3838 15.9054H10.2164C9.85206 15.9054 8.34525 15.8983 6.76533 15.8441L6.5649 15.837L6.46232 15.8323L6.2607 15.824L6.05909 15.8158C4.75035 15.758 3.50411 15.6648 2.92992 15.5092C2.52962 15.401 2.1648 15.1894 1.87199 14.8958C1.57919 14.6022 1.36869 14.2368 1.26158 13.8362C1.1307 13.3445 1.04346 12.6736 0.984503 11.9992L0.975071 11.8754L0.965639 11.7528C0.90745 10.9539 0.875206 10.1533 0.868958 9.35227L0.868958 9.20724C0.871316 8.95375 0.880748 8.07772 0.944416 7.11091L0.952669 6.98947L0.956206 6.92816L0.965639 6.80554L0.991578 6.49899L1.00337 6.37637C1.05996 5.76445 1.14367 5.17021 1.26276 4.72336C1.36969 4.32254 1.58011 3.95688 1.87292 3.66303C2.16574 3.36918 2.53066 3.15747 2.9311 3.04912C3.50529 2.89585 4.75153 2.80152 6.06027 2.74257L6.2607 2.73432L6.4635 2.72724L6.5649 2.72371L6.76651 2.71545C7.88861 2.67935 9.01117 2.6593 10.1338 2.65532H10.3614V2.65414ZM8.41481 6.43886V12.1195L13.3161 9.28034L8.41481 6.43886Z" fill="white"/>
</g>
<defs>
<clipPath id="clip0_1_46">
<rect width="18.8646" height="18.8646" fill="white" transform="translate(0.279419 0.297241)"/>
</clipPath>
</defs>
</svg>
